Patient4_TMGait_0pt3_03_left_15_EMG.mot
version=1
nRows=36
nColumns=33
inDegrees=no
endheader
time	1LAddLong	2LGlutMax	3LGlutMed	4LIliopsoas	5LSemiMemb	6LBicFemLong	7LRecFem	8LVastMed	9LVastLat	10LGasMed	11LTibAnt	12lTibPost	13LPeroneusLong	14LSol	15LExtDigLong	16LFlexDigLong	17RAddLong	18RGlutMax	19RGlutMed	20RIliopsoas	21RSemiMemb	22RBicFemLong	23RRecFem	24RVastMed	25RVastLat	26RGasMed	27RTibAnt	28RTibPost	29RPeroneusLong	30RSol	31RExtDigLong	32RFlexDigLong
27.985	-0.016632	-0.27451	-0.068817	0.010223	-0.035553	-0.018463	0.009003	-0.009155	0.14008	0.019226	0.020905	0.008087	0.010071	-0.010223	-0.032349	-0.006866	0.005951	-0.11459	0.28625	-0.037384	0.003052	0.021515	-0.068054	-0.041351	0.018616	-0.009155	-0.004883	-0.019073	0.29831	-0.22034	0.010834	-0.005951
27.986	0.012054	-0.2356	-0.081787	0.010681	0.014801	-0.023651	0.10986	-0.022736	0.19348	0.012512	-0.006256	0.010529	0.005798	-0.014038	0	-0.000763	0.011597	-0.074768	0.013123	0.027771	0.000153	0.012054	-0.028839	-0.014191	0.017853	-0.007629	0.022736	-0.020905	0.15701	0.020599	0.004272	-0.000916
27.987	0.026703	-0.19638	-0.033722	0.012054	0.029602	-0.13992	0.18448	-0.0177	0.17944	0.028534	0.011902	0.006714	0.011902	0.00412	0.009003	-0.003357	0.008698	-0.10986	0.033722	-0.015259	0.002441	0.01297	-0.040894	-0.023499	0.023804	-0.007019	0.027924	-0.003204	0.057068	0.10284	0.003967	-0.005798
27.988	0.039978	-0.16327	0.010986	0.013123	0.01236	-0.1828	0.18524	-0.018311	0.088348	0.015411	0.006714	0.013733	0.004272	0.011902	0.010986	-0.001068	0.015717	-0.1265	0.054626	-0.029297	-0.010834	0.012512	-0.041351	-0.042419	0.014191	-0.002289	0.019379	0.001831	0.033112	0.002289	0.007477	-0.003967
27.989	0.039368	-0.13794	0.019226	0.009003	0.032349	-0.13901	0.16846	-0.018311	-0.051575	0.022583	0.017395	0.009003	-0.004578	0.004425	0.009918	0.000763	0.018921	-0.093231	0.082703	-0.011597	-0.021515	-0.014038	-0.029755	-0.042877	0.013885	0.001221	0.028534	0.003204	-0.064545	-0.15411	0.00885	-0.005646
27.99	0.029297	-0.14969	0.001984	-0.016022	0.042419	-0.015717	0.15564	-0.002594	-0.11932	0.018158	0.014343	0.010223	-0.003662	-0.003052	-0.003052	0.002441	0.023651	-0.11185	0.027771	0.050659	-0.005035	-0.021667	-0.031128	-0.007477	0.027618	0.005493	0.019073	0.005951	-0.091553	-0.19684	0.00351	-0.006409
27.991	0.024261	-0.12344	-0.037689	0.005798	0.013275	-0.052948	0.14557	0.002441	-0.076294	0.017548	0.006714	0.013275	0.001831	-0.010071	-0.005188	0.000458	0.018005	-0.11444	-0.001221	0.12848	0.003967	-0.046844	-0.009918	-0.001526	0.009155	0.009003	0.010681	-0.004578	-0.054474	-0.10162	0.008087	-0.012817
27.992	0.027466	-0.093689	-0.043182	0.004578	0.006714	-0.07019	0.09613	0.010223	-0.031738	0.016479	0.01236	0.007324	0.009155	0.000458	-0.004578	-0.006561	0.020905	-0.091248	-0.005188	0.13229	-0.011139	-0.075378	-0.056152	-0.028687	0.023804	0.002289	0.009155	-0.005035	-0.08316	-0.10468	0.007935	-0.011902
27.993	0.028534	-0.057831	-0.071716	0.039215	-0.006561	0.023956	0.04776	0.007324	-0.007629	0.015869	0.016632	0.017242	0.028687	0.010529	-0.007324	0.004425	0.011139	-0.10941	0.001373	0.072784	-0.013275	-0.009003	-0.061798	-0.013733	0.012207	0.004883	0.008087	-0.003967	-0.11368	-0.014648	0.006866	-0.011597
27.994	0.017548	-0.024567	-0.09201	0.023499	-0.032043	0.071259	0.066071	-0.000153	0.003204	0.010986	0.020447	0.009918	0.06012	-0.003967	-0.015259	0.007935	-0.014191	-0.089417	-0.009308	0.054626	-0.023193	0.046997	-0.036316	-0.034637	0.012054	0.001526	0.008698	-0.010529	-0.11246	-0.058441	0.001221	-0.012817
27.995	0.010071	-0.019836	-0.081024	0.000153	-0.059357	0.069427	0.090332	0.003357	0.022583	0.024567	0.012665	0.00824	0.18555	-0.001984	-0.003815	-0.001831	-0.02533	-0.070953	0.012207	0.046844	0.012512	0.066376	-0.037384	-0.057373	0.026093	-0.003052	0.007172	-0.003662	-0.077209	-0.074463	0.001831	-0.013123
27.996	-0.010376	-0.010681	0.016174	0.000153	-0.051422	0.001678	0.068359	0.007019	-0.070496	0.01297	0.013275	0.005951	0.21042	0.016479	0.004883	0.008087	-0.011902	-0.067749	0.10132	0.019836	0.015106	0.052032	0.015106	-0.043182	0.007629	-0.006104	-0.001831	-0.008392	-0.063171	-0.121	0.006256	-0.011139
27.997	-0.014648	0.006866	0.099335	0.004425	-0.065613	-0.16815	0.079346	0.009003	-0.023041	0.023499	0.010071	0.010223	-0.13306	0.00946	0.018311	0.003967	-0.011902	-0.12726	0.075226	0.015564	0.025177	0.037994	-0.020752	-0.063629	0.009766	0.000763	0.007935	-0.003967	-0.075684	-0.10498	0.008392	-0.013275
27.998	-0.016632	0.013428	0.1001	0.011597	-0.052948	-0.16098	0.030212	0.023956	0.008392	0.011902	0.009308	0.006714	-0.12955	-0.014954	-0.014648	0.000916	-0.005493	-0.12054	0.069427	-0.033264	0.009003	0.036621	-0.019226	-0.058441	-0.001678	-0.002441	-0.000153	-0.008698	-0.061035	-0.088501	0.005798	-0.009155
27.999	-0.023804	0.02594	0.10757	0.014801	-0.042725	-0.087585	0.062408	0.024567	0.008087	0.00061	0.016632	0.006104	-0.20676	-0.010529	-0.028076	-0.003204	-0.00061	-0.16678	0.075378	-0.051575	0.004883	0.038757	0.011139	-0.04837	0.002747	0.002441	0.004578	-0.008087	-0.067291	-0.048218	0.001526	-0.011597
28	-0.010376	0.031281	0.053711	0.002136	-0.017242	-0.046844	0.088806	0.024567	0.02182	-0.01709	0.011902	0.015717	-0.12695	0.005646	-0.010529	0.001831	-0.005798	-0.14923	0.046997	-0.055542	-0.001831	0.044098	-0.015564	-0.054932	0.004883	0.002899	0.002899	-0.007019	-0.066376	-0.051575	0.001831	-0.010071
28.001	0.016174	0.031738	0.089874	-0.009003	0.083618	-0.020752	0.077515	0.00946	0.091553	-0.024567	0.021667	0.010223	0.045624	-0.007324	0.010071	0.003204	0.000153	-0.14511	0.039673	0.05249	-0.005188	0.04303	-0.032806	-0.068359	0.012054	0	0.007629	-0.005341	-0.029755	-0.03952	0.00351	-0.010376
28.002	0.010986	0.047302	0.040741	0.002594	0.10254	0.058899	0.177	0.00885	0.087433	0.01297	0.044556	0.002747	0.088348	0.01236	0.023956	0.004883	0.011749	-0.18143	-0.043945	0.15228	0.009613	0.041046	-0.033875	-0.074921	0.021973	0.002136	0.007172	-0.007019	-0.04364	-0.037384	-0.000916	-0.001678
28.003	-0.016022	0.10086	0.028839	0.006561	-0.012817	0.1442	0.15762	-0.007477	0.059967	0.02655	0.054321	0.007324	-0.07843	0.034943	0.008698	0.002441	0.033112	-0.12604	0.007019	0.097961	0.017853	0.061188	-0.013733	-0.062408	0.00473	0.000153	0.006409	-0.004272	-0.073853	-0.034027	0.001068	-0.010376
28.004	-0.01358	0.07843	0.073242	0.00885	-0.078888	0.15472	0.15518	0.006866	0.029755	0.010986	-0.024567	0.009766	-0.010834	0.035248	0.015869	0.002136	0.026245	-0.1297	0.1178	-0.046997	0.010223	0.063782	-0.018005	-0.033417	0.010071	0.001831	0.001221	-0.010681	-0.11612	-0.002594	0.000763	-0.014343
28.005	0.007172	0.077972	0.054016	-0.000305	-0.052032	0.15289	0.1738	0.012817	0.069122	-0.016174	-0.042419	0.010223	-0.019989	0.04303	0.092316	-0.009308	0.0177	-0.16754	0.3331	-0.099487	0.015564	0.050049	-0.02594	-0.039063	0.005188	0.000305	-0.000916	-0.005341	-0.11444	0.005646	-0.002441	-0.005341
28.006	0.015717	0.12726	0.17258	-0.008545	-0.021362	0.060272	0.15305	-0.007629	0.076599	0.001678	-0.032959	0.02243	-0.047455	0.022888	0.039978	-0.014801	0.013275	-0.1535	0.23758	0.01236	-0.001068	0.04837	-0.001373	-0.05661	0.000763	-0.004578	-0.006714	-0.006714	-0.076447	0.020447	-0.000153	-0.024414
28.007	0.0177	0.12878	0.061493	0.006561	0.015411	0.080719	0.13046	-0.001526	-0.001068	0.024261	-0.032501	0.00351	-0.076752	0.035553	-0.031891	-0.010681	0.00885	-0.13504	0.29709	0.014801	0.005035	0.016479	-0.010681	-0.049591	0.012054	-0.000916	0.009155	-0.012512	-0.068207	0.003204	-0.001373	-0.006409
28.008	0.00351	0.15457	0.072174	0.00885	0.071869	0.10895	0.076599	-0.014496	-0.054474	0.039673	-0.011749	0.018158	-0.039978	0.063934	-0.07019	0.002594	-0.007935	-0.16968	0.18829	0.017395	0.016479	0.031891	-0.020142	-0.024261	0.003815	-0.002747	0.006256	-0.007629	-0.059509	0.001221	-0.000763	-0.008392
28.009	-0.005798	0.16678	0.041809	0.025787	0.05188	0.10208	0.011444	-0.005798	-0.19043	0.030975	0.054016	0.004425	0.015259	0.04837	-0.056305	0.000153	-0.00885	-0.10147	0.13992	-0.016632	0.009613	0.013885	-0.001678	-0.037842	0.021515	-0.004883	0.004425	-0.004272	-0.065155	0.039978	-0.001678	-0.018158
28.01	-0.002594	0.10529	-0.052795	0.007782	0.010681	-0.103	-0.098877	-0.005646	-0.24979	0.014496	0.087891	-0.00061	-0.019379	0.020294	-0.013123	0.005951	-0.007324	-0.13458	0.073395	-0.023346	0.003052	0.016785	0.023499	-0.041962	-0.001678	-0.001678	0.001678	-0.007019	-0.050354	0.027618	-0.001984	-0.015259
28.011	0.004425	0.074005	-0.039215	0.01709	0.003815	-0.09201	-0.014496	-0.007477	-0.16602	0.006409	0.18066	0.022125	-0.081787	0.032959	0.077209	0.001221	-0.014954	-0.10025	-0.112	-0.030365	0.003815	0.010681	0.014801	-0.030212	0.005951	0.006104	0.002441	-0.005188	-0.041656	-0.003204	-0.008087	-0.016327
28.012	-0.000916	0.091858	-0.065765	0.010529	0.002441	0.083771	0.037994	0.002289	-0.14343	0.000916	0.15076	0.002441	-0.042114	0.022888	0.071716	-0.011139	-0.049438	-0.13748	-0.077362	-0.011749	-0.017853	0.009155	-0.010834	-0.031433	-0.005493	-0.001526	0.002747	-0.006104	-0.022125	-0.034943	-0.001678	-0.018158
28.013	0.005035	0.092163	-0.064087	0.002136	-0.065002	0.044708	0.020142	-0.003357	-0.084534	0.01236	0.053558	-0.001831	-0.008545	0.001831	-0.014343	0.008087	-0.061798	-0.12238	-0.025024	0.005493	-0.02243	-0.007019	-0.000916	-0.019226	0.018463	-0.006104	0.005951	-0.00412	-0.03891	-0.021515	-0.002899	-0.011292
28.014	0.002441	0.14297	-0.005341	-0.009766	-0.079651	0.015717	0.032196	0.008545	-0.036316	0.009155	-0.044098	0.002594	0.010376	0.005646	-0.08194	-0.001221	-0.06134	-0.074158	0.027771	-0.041656	-0.013123	-0.008392	0.021362	-0.041962	-0.001068	-0.002289	0.008392	-0.009155	-0.064697	-0.030518	-0.005798	-0.014801
28.015	0.009613	0.14923	-0.007019	0.005798	-0.066986	0.10391	0.019073	0.006256	0.045471	0.014648	-0.13534	0.009918	0.058594	0.000916	-0.14343	-0.015411	-0.043945	-0.046692	0.035706	-0.061035	-0.015411	-0.002136	0.003662	-0.078278	0.010223	-0.007477	0.010986	-0.00412	-0.062714	-0.037537	-0.001068	-0.011597
28.016	0.012817	0.1265	-0.094452	-0.00351	-0.035706	-0.01358	-0.007019	-0.007629	0.14862	0.010376	-0.04425	0.004425	0.014191	-0.001373	-0.14572	-0.014343	-0.015259	-0.032349	0.046387	-0.035553	-0.012512	-0.00885	-0.008087	-0.042114	0.014954	-0.009155	0.008087	-0.005341	-0.028839	-0.002899	0.003204	-0.010376
28.017	0.020599	0.17792	-0.029755	0	-0.003357	-0.1091	0.011292	-0.010834	0.22858	0.004425	-0.050354	0.013733	0.049744	-0.022888	-0.26367	-0.009155	0.020905	-0.013275	0.08255	0.029144	-0.006714	-0.021057	0.001526	-0.066071	0.015106	-0.005035	-0.005188	-0.011292	-0.034027	0.004425	0.001221	-0.012512
28.018	0.009308	0.23315	-0.093994	0.020905	0.046844	-0.010681	-0.019379	-0.002747	0.19501	0.006409	-0.076447	0.008392	0.039215	-0.036011	0.11505	-0.006714	0.037689	-0.026703	0.079041	0.065613	0.001068	-0.00824	0.007019	-0.035248	0.008087	-0.003357	0.007629	-0.007782	-0.041046	0.006256	-0.001526	-0.002289
28.019	0.080261	0.2446	-0.07431	0.00351	0.007324	0.019379	-0.014801	0.000916	0.1236	0.006714	-0.053253	0.019073	0.005035	-0.08606	-0.00885	0.003357	0.012665	0.01236	0.075684	-0.0177	-0.015411	0.003357	0.041656	-0.041962	0.011444	-0.006104	-0.004883	-0.004883	-0.013428	-0.005951	-0.002289	-0.002441
28.02	0.035553	0.20432	0.10346	-0.001526	0.034943	0.031128	-0.008545	0.006866	0.071869	0.015717	-0.08606	0.002289	0.013428	-0.076294	-0.12024	-0.005798	0.032501	-0.011749	0.066833	-0.054016	0.005798	0.001831	0.021057	-0.046082	0.003662	-0.002747	0.011292	-0.00946	-0.015411	-0.024414	-0.001221	-0.003967
